<?xml version="1.0" standalone="no"?>
<!DOCTYPE svg PUBLIC "-//W3C//DTD SVG 20010904//EN"
 "http://www.w3.org/TR/2001/REC-SVG-20010904/DTD/svg10.dtd">
<svg version="1.0" xmlns="http://www.w3.org/2000/svg"
 width="500.000000pt" height="73.000000pt" viewBox="0 0 500.000000 73.000000"
 preserveAspectRatio="xMidYMid meet">

<g transform="translate(0.000000,73.000000) scale(0.100000,-0.100000)"
fill="#000000" stroke="none">
<path d="M430 662 c52 -28 95 -91 124 -180 29 -88 49 -112 89 -112 34 0 36 26
6 107 -36 95 -129 178 -224 198 -30 7 -30 7 5 -13z"/>
<path d="M220 643 c-34 -22 -90 -75 -101 -94 -7 -14 -3 -14 29 3 74 39 174 7
295 -94 27 -22 51 -37 54 -34 13 12 -19 116 -48 156 -52 71 -169 104 -229 63z"/>
<path d="M1010 355 l0 -215 105 0 105 0 0 50 0 50 -55 0 -55 0 0 40 0 40 45 0
45 0 0 50 0 50 -45 0 c-41 0 -45 2 -45 25 0 24 3 25 55 25 l55 0 0 50 0 50
-105 0 -105 0 0 -215z"/>
<path d="M1252 548 c3 -13 23 -110 44 -215 l38 -193 56 0 56 0 38 192 c21 106
41 203 44 216 4 20 1 22 -46 22 -57 0 -54 3 -72 -97 -7 -40 -16 -73 -20 -73
-4 0 -13 33 -20 73 -18 100 -15 97 -72 97 -47 0 -50 -2 -46 -22z m224 -23 c-8
-8 -20 -15 -27 -15 -9 0 -8 4 1 15 7 8 19 15 27 15 12 0 12 -2 -1 -15z m-116
-249 c0 -9 -30 -14 -35 -6 -4 6 3 10 14 10 12 0 21 -2 21 -4z m-23 -48 c-3 -8
-6 -5 -6 6 -1 11 2 17 5 13 3 -3 4 -12 1 -19z"/>
<path d="M1600 557 c-50 -25 -61 -68 -58 -220 l3 -139 33 -29 c26 -23 42 -29
78 -29 55 0 96 20 112 55 8 16 12 79 12 166 l0 141 -34 34 c-28 28 -41 34 -77
34 -24 0 -55 -6 -69 -13z m30 -32 c-7 -8 -16 -15 -21 -15 -5 0 -9 7 -9 15 0 9
9 15 21 15 18 0 19 -2 9 -15z m100 -50 c-7 -8 -16 -15 -21 -15 -5 0 -9 7 -9
15 0 9 9 15 21 15 18 0 19 -2 9 -15z m-50 -120 c0 -106 -1 -115 -19 -115 -18
0 -19 9 -19 115 0 106 2 115 19 115 18 0 19 -9 19 -115z"/>
<path d="M2018 541 l-33 -29 0 -157 0 -157 33 -29 c26 -24 41 -29 82 -29 66 0
109 36 117 98 l6 42 -52 0 c-44 0 -51 -3 -51 -20 0 -13 -7 -20 -20 -20 -19 0
-20 7 -20 115 0 108 1 115 20 115 15 0 20 -7 20 -25 0 -23 3 -25 51 -25 l52 0
-6 47 c-7 67 -48 103 -117 103 -41 0 -56 -5 -82 -29z m22 -295 c0 -7 -9 -16
-21 -19 -15 -4 -18 -2 -10 7 6 7 8 16 4 19 -3 4 1 7 10 7 10 0 17 -6 17 -14z
m142 -22 c-6 -35 -41 -70 -73 -72 -25 -1 -24 1 20 48 25 27 49 49 52 50 3 0 4
-12 1 -26z"/>
<path d="M2284 536 l-34 -34 0 -141 c0 -159 9 -190 60 -211 47 -20 120 -8 147
25 22 25 23 34 23 176 0 84 -5 159 -10 170 -15 28 -63 49 -111 49 -33 0 -47
-6 -75 -34z m43 -13 c-15 -16 -17 -16 -17 -1 0 9 6 18 13 21 20 7 22 -2 4 -20z
m104 -52 c-6 -10 -9 -20 -8 -22 1 -2 -4 2 -10 10 -18 21 -16 31 7 31 17 0 19
-3 11 -19z m-51 -116 c0 -96 -3 -115 -15 -115 -12 0 -15 19 -15 115 0 96 3
115 15 115 12 0 15 -19 15 -115z"/>
<path d="M2550 543 c0 -16 -7 -95 -15 -178 -8 -82 -15 -167 -15 -188 l0 -38
48 3 c47 3 47 3 53 43 l5 40 8 -30 c4 -16 9 -36 12 -42 2 -8 22 -13 53 -13
l49 0 7 48 c8 50 10 49 20 -10 6 -38 6 -38 56 -38 l50 0 -6 47 c-8 68 -35 353
-35 369 0 10 -15 14 -54 14 l-54 0 -18 -77 -17 -78 -10 40 c-5 22 -13 57 -18
78 l-10 37 -54 0 c-53 0 -55 -1 -55 -27z m65 -39 c8 2 19 -2 26 -10 10 -12 8
-14 -7 -10 -56 12 -65 18 -52 34 12 13 13 13 16 -2 2 -10 10 -15 17 -12z"/>
<path d="M2946 548 c-5 -22 -36 -370 -36 -395 0 -9 17 -13 50 -13 49 0 50 1
50 29 0 43 17 47 24 6 7 -34 8 -35 56 -35 l50 0 6 41 c7 45 24 35 24 -13 0
-27 2 -28 51 -28 l51 0 -6 62 c-3 35 -10 117 -16 183 -19 201 -12 185 -75 185
l-53 0 -13 -70 c-7 -38 -16 -70 -20 -70 -4 0 -13 32 -20 70 l-12 70 -53 0
c-48 0 -54 -3 -58 -22z m52 -30 c-2 -7 2 -12 7 -13 6 0 19 -6 30 -12 18 -10
17 -11 -8 -10 -15 1 -27 5 -27 10 0 4 -7 7 -15 7 -16 0 -20 12 -8 23 11 11 23
8 21 -5z"/>
<path d="M3300 384 l0 -186 29 -29 c26 -25 37 -29 86 -29 49 0 60 4 86 29 l29
29 0 186 0 186 -50 0 -50 0 0 -165 c0 -140 -2 -165 -15 -165 -13 0 -15 25 -15
165 l0 165 -50 0 -50 0 0 -186z m35 -54 c-3 -5 -10 -10 -16 -10 -5 0 -9 5 -9
10 0 6 7 10 16 10 8 0 12 -4 9 -10z m182 -106 c-3 -3 -12 -4 -19 -1 -8 3 -5 6
6 6 11 1 17 -2 13 -5z"/>
<path d="M3560 355 l0 -215 50 0 50 0 0 61 c0 33 4 58 8 55 5 -3 17 -30 27
-60 l19 -56 48 0 48 0 0 216 0 215 -47 -3 -48 -3 -5 -58 -5 -58 -23 60 -24 61
-49 0 -49 0 0 -215z m220 125 c0 -5 -4 -10 -10 -10 -5 0 -10 5 -10 10 0 6 5
10 10 10 6 0 10 -4 10 -10z m15 -180 c-3 -5 -12 -10 -18 -10 -7 0 -6 4 3 10
19 12 23 12 15 0z m-15 -30 c0 -5 -2 -10 -4 -10 -3 0 -8 5 -11 10 -3 6 -1 10
4 10 6 0 11 -4 11 -10z m-10 -40 c0 -5 -2 -10 -4 -10 -3 0 -8 5 -11 10 -3 6
-1 10 4 10 6 0 11 -4 11 -10z"/>
<path d="M3840 355 l0 -215 50 0 50 0 0 215 0 215 -50 0 -50 0 0 -215z m90 70
c0 -8 -4 -15 -9 -15 -13 0 -22 16 -14 24 11 11 23 6 23 -9z"/>
<path d="M3970 520 l0 -50 40 0 40 0 0 -165 0 -165 50 0 50 0 0 165 0 165 40
0 40 0 0 50 0 50 -130 0 -130 0 0 -50z m50 20 c0 -5 -5 -10 -11 -10 -5 0 -7 5
-4 10 3 6 8 10 11 10 2 0 4 -4 4 -10z"/>
<path d="M4260 560 c0 -6 23 -55 50 -110 l50 -100 0 -105 0 -105 50 0 50 0 0
100 0 100 55 110 c30 60 55 112 55 115 0 3 -25 5 -55 5 l-55 0 -24 -47 -24
-48 -23 48 -23 47 -53 0 c-29 0 -53 -5 -53 -10z m35 -20 c3 -5 1 -10 -4 -10
-6 0 -11 5 -11 10 0 6 2 10 4 10 3 0 8 -4 11 -10z m85 -74 c0 16 2 16 10 4 9
-15 -7 -33 -21 -24 -4 2 -10 0 -14 -6 -9 -15 -25 -2 -25 21 0 18 1 19 25 3 24
-15 25 -15 25 2z"/>
<path d="M255 398 c-36 -32 -52 -122 -31 -173 37 -88 120 -154 197 -156 51 -1
7 -17 -49 -18 -96 -2 -157 56 -196 181 -32 105 -48 128 -88 128 -31 0 -31 0
-25 -45 16 -116 104 -226 208 -260 172 -58 355 56 394 244 l7 35 -32 -27 c-17
-15 -42 -27 -54 -27 -23 0 -75 31 -130 77 -77 64 -155 80 -201 41z"/>
</g>
</svg>
